<svg width="32" height="32" viewBox="0 0 32 32" fill="none" xmlns="http://www.w3.org/2000/svg">
<g clip-path="url(#clip0_8_196)">
<rect width="32" height="32" fill="white"/>
<path d="M31.5862 24.0053C28.9934 25.4691 25.9834 26.2817 22.7834 26.2155C13.3507 26.0233 5.856 18.2878 6.04087 8.94217C6.10712 5.76823 7.04487 2.82245 8.63062 0.316589C3.58037 3.16965 0.12875 8.50505 0.003375 14.6808C-0.18325 24.0278 7.3175 31.7626 16.7527 31.9554C22.9825 32.0835 28.505 28.8877 31.5862 24.0052" fill="#1F3244"/>
<path d="M22.6179 24.2055C22.7224 24.2074 22.8275 24.2093 22.9326 24.2093C25.3944 24.2093 27.8226 23.5925 29.9815 22.4315C31.2538 20.2245 31.9944 17.663 31.9944 14.92C31.9944 6.68142 25.4116 0 17.2895 0C14.7289 0 12.3221 0.666814 10.2264 1.83475C8.87031 4.04246 8.12615 6.57863 8.07187 9.17742C7.91125 17.2951 14.4359 24.0385 22.6179 24.2055Z" fill="#3E95BE"/>
</g>
<defs>
<clipPath id="clip0_8_196">
<rect width="32" height="32" fill="white"/>
</clipPath>
</defs>
</svg>
